<?xml version="1.0" encoding="utf-8"?>
<!-- Generator: Adobe Illustrator 17.1.0, SVG Export Plug-In . SVG Version: 6.00 Build 0)  -->
<!DOCTYPE svg PUBLIC "-//W3C//DTD SVG 1.1//EN" "http://www.w3.org/Graphics/SVG/1.1/DTD/svg11.dtd">
<svg version="1.1" id="Layer_1" xmlns="http://www.w3.org/2000/svg" xmlns:xlink="http://www.w3.org/1999/xlink" x="0px" y="0px"
	 viewBox="0 0 256.5 57.5" enable-background="new 0 0 256.5 57.5" xml:space="preserve">
<g>
	<path fill-rule="evenodd" clip-rule="evenodd" fill="#F4ADCD" d="M47.5,41.7c5-7,11.1-12.8,9.7-20.5c-1.1-5.9-7-12.9-12.1-15.7
		c-5.1,2.8-11,9.8-12.1,15.7c-1.4,7.7,4.7,13.5,9.7,20.5C43.9,42.1,46.9,42,47.5,41.7L47.5,41.7z"/>
	<path fill-rule="evenodd" clip-rule="evenodd" fill="#E61E84" d="M80.4,17.8c-5.8,5.3-5.7,7.5-13.1,11.9
		C77.6,28.9,81.3,30,80.4,17.8L80.4,17.8z"/>
	<path fill-rule="evenodd" clip-rule="evenodd" fill="#E61E84" d="M9.9,17.8c5.8,5.3,5.7,7.5,13.1,11.9C12.7,28.9,9,30,9.9,17.8
		L9.9,17.8z"/>
	<path fill-rule="evenodd" clip-rule="evenodd" fill="#D65A9D" d="M67.7,47.4c8.5,2.2,15.1,1.5,20-5.7c-2.6-1.9-5.4-2.6-7.4-2.8
		C76.6,43.9,74.3,45.6,67.7,47.4L67.7,47.4z"/>
	<path fill-rule="evenodd" clip-rule="evenodd" fill="#D65A9D" d="M22.6,47.4c-8.5,2.2-15.1,1.5-20-5.7c2.6-1.9,5.4-2.6,7.4-2.8
		C13.7,43.9,16,45.6,22.6,47.4L22.6,47.4z"/>
	<path fill-rule="evenodd" clip-rule="evenodd" fill="#CF9AC6" d="M76.6,10.1c-3.9,1.1-9.5,4.3-11.1,6.6c0.8,7.8-3.3,13.3-6.2,15.2
		C71,29.4,77.8,22.1,76.6,10.1L76.6,10.1z"/>
	<path fill-rule="evenodd" clip-rule="evenodd" fill="#CF9AC6" d="M13.7,10.1c3.9,1.1,9.5,4.3,11.1,6.6C24,24.5,28,30,31,31.8
		C19.3,29.4,12.5,22.1,13.7,10.1L13.7,10.1z"/>
	<path fill-rule="evenodd" clip-rule="evenodd" fill="#E61E84" d="M45.2,42.7c0,14.6,17.7,16.9,21.6,4.4
		C58.2,50.9,48.8,41.2,45.2,42.7c0,14.6-17.7,16.9-21.6,4.4C32.1,50.9,41.5,41.2,45.2,42.7L45.2,42.7z"/>
	<path fill-rule="evenodd" clip-rule="evenodd" fill="#D370AA" d="M58,2.2c-2.8,3.5-3.9,4.3-5.6,8.4c5.8,5.3,8.8,15.8,1.5,24.2
		C66.8,26.8,68,13.3,58,2.2L58,2.2z"/>
	<path fill-rule="evenodd" clip-rule="evenodd" fill="#D370AA" d="M32.3,2.2c2.8,3.5,3.9,4.3,5.6,8.4C32,15.9,29,26.4,36.4,34.8
		C23.5,26.8,22.3,13.3,32.3,2.2L32.3,2.2z"/>
	<path fill-rule="evenodd" clip-rule="evenodd" fill="#F4ADCD" d="M48.5,41.8c14.8-18.9,26.6-4.9,34.9-16.7
		C82.8,43.5,67.4,52.8,48.5,41.8L48.5,41.8z"/>
	<path fill-rule="evenodd" clip-rule="evenodd" fill="#F4ADCD" d="M41.8,41.8C27,22.8,15.2,36.9,6.9,25.1
		C7.5,43.5,23,52.8,41.8,41.8L41.8,41.8z"/>
	<g>
		<path fill="#ABD25F" d="M103.9,14.3c0-0.3,0-0.6,0-0.8c0-5.9,6.5-7.9,11.8-7.9c4.8,0,9.7,0.4,14.2-2.3l2.5,4.2h0l-7.6,13.2h4
			l-1.2,2.3h-4l-5.4,9.3c-4,7-9.4,9.7-14.2,9.7c-6.2,0-11-4.4-11-9.8c0-5.9,5.2-10.4,11-10.4v3.6c-3.8,0-7.1,2.8-7.1,6.6
			c0,3.5,3.2,6,7,6c3.4,0,7.3-1.9,10-6.6l4.8-8.4h-4.6l1.2-2.3h4.6l7.1-12.4c-2.6,1.1-5.8,0.8-8.9,0.8c-5.3,0-10,1.1-10,4.8v0.3
			H103.9z"/>
		<path fill="#ABD25F" d="M138.7,27.8c0.6,0.3,1.5,1,1.8,1.7c-4,4.6-8.5,8.8-12.5,8.8c-3.9,0-5.3-3.3-3.3-6.8l15.4-26.8h4.8
			l-16.1,28c-1.1,1.9-0.5,2.6,0.6,2.6c2.1,0,5.5-3.2,8.9-7.2L138.7,27.8z"/>
		<path fill="#ABD25F" d="M150.5,34.1c-6.4,8.1-18,4.3-12-6l2.1-3.5l2.3-4.1c2.8-4.8,5.6-6.3,9.3-6.3c4.5,0,7.2,4.7,4.3,9.7
			l-4.5,7.8c2.4,0,5.1-1.2,7.2-3.5l0.3-0.4c0.6,0.3,1.5,1,1.8,1.7c-2.4,2.9-6.9,4.6-9.8,4.6H150.5z M149.1,28.2h0.2l3.5-6
			c2.9-5-1.7-7.2-5.1-1.5l-2.3,3.9l-3.6,6.3c-2.9,5,2.6,5.7,4.9,1.8l0-0.1c-0.3-0.5-0.5-1-0.5-1.6C146.3,29.5,147.5,28.2,149.1,28.2
			z"/>
		<path fill="#ABD25F" d="M182.1,27.8c0.6,0.3,1.5,1,1.8,1.7c-4,4.6-8.5,8.8-12.5,8.8c-3,0-4.6-2-4.1-4.6c-2.3,2.2-5.2,4.6-7.9,4.6
			c-3.2,0-4.3-3-1.8-7.2l9.4-16.2h4.8l-9.3,16.3c-0.6,1-1.8,2.8-0.6,3.3c0.9,0.4,3.7-1.4,7.4-4.7l8.5-14.8h4.8l-10.2,17.9
			c-1.1,1.9-0.5,2.6,0.6,2.6c2.1,0,5.5-3.2,8.9-7.2L182.1,27.8z"/>
		<path fill="#ABD25F" d="M192.7,22.7c0.6-1,0.3-1.9-0.3-2.7l-0.6-0.8c-3.8,5.2-5.6,7.6-7.9,10.3c-0.7-0.5-1.4-1.1-1.8-1.7
			c3.1-3.7,6-7.7,8.1-10.7l-0.4-0.6c-1.7-2.2-1.5-4.9,1.2-7.4l2.5,2.7c-1,0.9-1,1.9-0.3,2.8l2.7,3.2c1.6,1.9,2.3,3.6,0.7,6.5
			l-4.8,8.4c-1.1,1.9-0.5,2.6,0.6,2.6c2.1,0,5.5-3.2,8.9-7.2l0.3-0.4c0.6,0.3,1.5,1,1.8,1.7c-4,4.6-8.5,8.8-12.5,8.8
			c-3.9,0-5.3-3.3-3.3-6.8L192.7,22.7z"/>
		<path fill="#ABD25F" d="M213.4,27.8c0.6,0.3,1.5,1,1.8,1.7c-4,4.6-8.5,8.8-12.5,8.8c-3.9,0-5.3-3.3-3.3-6.8l9.6-16.6h4.8
			l-10.3,17.9c-1.1,1.9-0.5,2.6,0.6,2.6c2.1,0,5.5-3.2,8.9-7.2L213.4,27.8z M214.4,6.9c1.6,0,2.8,1.2,2.8,2.8s-1.2,2.8-2.8,2.8
			c-1.6,0-2.8-1.2-2.8-2.8S212.9,6.9,214.4,6.9z"/>
		<path fill="#ABD25F" d="M211.3,34.5l3-1.6c0,0,0.6,1.7,2.3,1.7c4.6,0,3.5-8.9,5.4-13.9c-1.7,2.3-4.1,5.6-6.8,8.7
			c-0.7-0.5-1.4-1.1-1.8-1.7c4.3-5.1,8.6-11.3,10.6-14l3.6,1.9c-2.9,6.1-2.6,13.1-4.1,17.7c1.9-1.3,4-3.1,5.7-5.2l0.3-0.4
			c0.7,0.2,1.5,0.9,1.8,1.7c-3.6,4.2-8.4,8-13.3,8.7c0,0-0.1,0-0.1,0c-0.5,0-0.9,0.1-1.3,0.1C212.2,38.3,211.3,34.5,211.3,34.5z"/>
		<path fill="#ABD25F" d="M252.1,27.8c0.6,0.3,1.5,1,1.8,1.7c-4,4.6-8.5,8.8-12.5,8.8c-3.9,0-5.3-3.3-3.3-6.8l6.2-10.8
			c2.1-3.5-1.2-4.7-8.6,4.5l-7.3,12.6h-4.8l19.1-33.1h4.8L240,18c2.4-2.5,4.6-3.6,6.7-3.6c2.7,0,4.6,2.6,2.6,6.3l-6.9,12.1
			c-1.1,1.9-0.5,2.6,0.6,2.6c2.1,0,5.5-3.2,8.9-7.2L252.1,27.8z"/>
	</g>
	<g>
		<path fill="#E61E84" d="M118.9,45.3l2.4,6.1l2.5-6.6l2.4,6.6l2.5-6.1h1.5l-4.1,9.7l-2.4-6.5l-2.5,6.5l-3.9-9.7H118.9z"/>
		<path fill="#E61E84" d="M133.4,46.3c0-0.2,0.1-0.4,0.3-0.6c0.2-0.2,0.4-0.3,0.6-0.3c0.2,0,0.4,0.1,0.6,0.3
			c0.2,0.2,0.3,0.4,0.3,0.6c0,0.2-0.1,0.4-0.3,0.6c-0.2,0.2-0.4,0.3-0.6,0.3c-0.2,0-0.4-0.1-0.6-0.3
			C133.5,46.7,133.4,46.5,133.4,46.3z M135,48.7v5.8h-1.3v-5.8H135z"/>
		<path fill="#E61E84" d="M140.5,49.9v4.5h-1.3v-4.5h-0.6v-1.2h0.6v-2.1h1.3v2.1h1v1.2H140.5z"/>
		<path fill="#E61E84" d="M145.1,44.4h1.3v4.7c0.5-0.4,1-0.6,1.6-0.6c0.7,0,1.2,0.2,1.6,0.6c0.3,0.4,0.5,1,0.5,1.8v3.5h-1.3V51
			c0-0.5-0.1-0.8-0.2-1c-0.2-0.2-0.4-0.3-0.8-0.3c-0.5,0-0.8,0.1-1,0.4c-0.2,0.3-0.3,0.8-0.3,1.5v2.8h-1.3V44.4z"/>
		<path fill="#E61E84" d="M162,45.3v7.9h2.7v1.3h-4.1v-9.2H162z"/>
		<path fill="#E61E84" d="M168,46.3c0-0.2,0.1-0.4,0.3-0.6c0.2-0.2,0.4-0.3,0.6-0.3c0.2,0,0.4,0.1,0.6,0.3c0.2,0.2,0.3,0.4,0.3,0.6
			c0,0.2-0.1,0.4-0.3,0.6c-0.2,0.2-0.4,0.3-0.6,0.3c-0.2,0-0.4-0.1-0.6-0.3C168,46.7,168,46.5,168,46.3z M169.5,48.7v5.8h-1.3v-5.8
			H169.5z"/>
		<path fill="#E61E84" d="M175.5,53.2h3.4v1.3h-6.1l3.7-4.5h-2.9v-1.2h5.6L175.5,53.2z"/>
		<path fill="#E61E84" d="M189.1,54.4v-9.2h1.4c0.6,0,1.1,0,1.5,0.1c0.4,0.1,0.7,0.3,0.9,0.5c0.3,0.2,0.5,0.5,0.6,0.9
			c0.2,0.4,0.2,0.7,0.2,1.1c0,0.7-0.3,1.2-0.8,1.7c0.5,0.2,0.9,0.5,1.2,0.9c0.3,0.4,0.4,0.9,0.4,1.4c0,0.7-0.3,1.3-0.8,1.8
			c-0.3,0.3-0.6,0.5-1,0.6c-0.4,0.1-0.9,0.2-1.6,0.2H189.1z M190.5,49.2h0.4c0.5,0,0.9-0.1,1.1-0.3c0.2-0.2,0.4-0.6,0.4-1
			c0-0.4-0.1-0.8-0.4-1c-0.2-0.2-0.6-0.3-1.1-0.3h-0.5V49.2z M190.5,53.1h0.9c0.6,0,1.1-0.1,1.4-0.4c0.3-0.3,0.5-0.6,0.5-1
			c0-0.4-0.1-0.7-0.4-1c-0.3-0.3-0.8-0.4-1.5-0.4h-0.7V53.1z"/>
		<path fill="#E61E84" d="M202.7,48.7h1.3v5.8h-1.3v-0.6c-0.6,0.5-1.1,0.8-1.8,0.8c-0.8,0-1.5-0.3-2-0.9c-0.5-0.6-0.8-1.3-0.8-2.2
			c0-0.9,0.3-1.6,0.8-2.2c0.5-0.6,1.2-0.9,1.9-0.9c0.7,0,1.3,0.3,1.8,0.8V48.7z M199.5,51.5c0,0.6,0.1,1,0.4,1.4
			c0.3,0.4,0.7,0.5,1.2,0.5c0.5,0,0.9-0.2,1.2-0.5c0.3-0.4,0.5-0.8,0.5-1.3c0-0.5-0.2-1-0.5-1.3c-0.3-0.3-0.7-0.5-1.2-0.5
			c-0.5,0-0.8,0.2-1.2,0.5C199.7,50.6,199.5,51,199.5,51.5z"/>
		<path fill="#E61E84" d="M208.2,48.7h1.3v0.5c0.2-0.3,0.5-0.4,0.7-0.5c0.2-0.1,0.4-0.1,0.7-0.1c0.4,0,0.7,0.1,1.1,0.3l-0.6,1.2
			c-0.3-0.2-0.5-0.3-0.7-0.3c-0.7,0-1.1,0.5-1.1,1.6v3h-1.3V48.7z"/>
		<path fill="#E61E84" d="M215.3,48.7h1.3v0.5c0.2-0.3,0.5-0.4,0.7-0.5c0.2-0.1,0.4-0.1,0.7-0.1c0.4,0,0.7,0.1,1.1,0.3l-0.6,1.2
			c-0.3-0.2-0.5-0.3-0.7-0.3c-0.7,0-1.1,0.5-1.1,1.6v3h-1.3V48.7z"/>
		<path fill="#E61E84" d="M227.5,51.9h-4.1c0,0.5,0.2,0.9,0.5,1.1c0.3,0.3,0.6,0.4,1.1,0.4c0.3,0,0.6-0.1,0.8-0.2
			c0.2-0.2,0.5-0.5,0.7-0.9l1.1,0.6c-0.2,0.3-0.4,0.6-0.6,0.8c-0.2,0.2-0.4,0.4-0.6,0.5c-0.2,0.1-0.5,0.2-0.7,0.3
			c-0.3,0.1-0.5,0.1-0.8,0.1c-0.9,0-1.6-0.3-2.1-0.8c-0.5-0.6-0.8-1.3-0.8-2.2c0-0.9,0.3-1.7,0.8-2.2c0.5-0.6,1.2-0.8,2-0.8
			c0.9,0,1.5,0.3,2,0.8c0.5,0.5,0.7,1.3,0.7,2.2L227.5,51.9z M226.1,50.8c-0.2-0.7-0.6-1.1-1.3-1.1c-0.2,0-0.3,0-0.5,0.1
			c-0.1,0-0.3,0.1-0.4,0.2c-0.1,0.1-0.2,0.2-0.3,0.3c-0.1,0.1-0.1,0.3-0.2,0.4H226.1z"/>
		<path fill="#E61E84" d="M232.8,49.9v4.5h-1.3v-4.5h-0.6v-1.2h0.6v-2.1h1.3v2.1h1v1.2H232.8z"/>
		<path fill="#E61E84" d="M238.6,49.9v4.5h-1.3v-4.5h-0.6v-1.2h0.6v-2.1h1.3v2.1h1v1.2H238.6z"/>
	</g>
</g>
</svg>
